<svg xmlns="http://www.w3.org/2000/svg" width="128" height="128" viewBox="0 0 128 128">
  <title>BLOCKCHAIN</title>
  <g>
    <path d="M42.43,51.055v1.972l-16.076-8.37a7.5,7.5,0,0,0,1.756-3.03l16.215,8.442Z" fill="#477b9e"/>
    <path d="M42.43,74.973v1.972l1.9.986L28.11,86.374a7.5,7.5,0,0,0-1.756-3.031Z" fill="#477b9e"/>
    <path d="M85.57,51.055v1.972l16.076-8.37a7.5,7.5,0,0,1-1.756-3.03L83.675,50.069Z" fill="#477b9e"/>
    <path d="M85.57,74.973v1.972l-1.895.986L99.89,86.374a7.5,7.5,0,0,1,1.756-3.031Z" fill="#477b9e"/>
    <path d="M64,106.243a7.7,7.7,0,0,1,1.75.207V87.264L64,88.175l-1.75-.911V106.45A7.7,7.7,0,0,1,64,106.243Z" fill="#477b9e"/>
    <path d="M64,21.757a7.7,7.7,0,0,1-1.75-.207V40.736L64,39.825l1.75.911V21.55A7.7,7.7,0,0,1,64,21.757Z" fill="#477b9e"/>
    <polygon points="42.43 51.055 64 62.285 85.57 51.055 64 39.825 42.43 51.055" fill="#b5dcff"/>
    <polygon points="42.43 76.945 42.43 51.055 64 62.285 64 88.175 42.43 76.945" fill="#7fb3fa"/>
    <polygon points="85.57 76.945 85.57 51.055 64 62.285 64 88.175 85.57 76.945" fill="#64a6f4"/>
    <path d="M24.589,32.683a7.725,7.725,0,1,1-10.553,2.828A7.726,7.726,0,0,1,24.589,32.683Z" fill="#f4dd45"/>
    <path d="M103.411,95.317a7.725,7.725,0,1,1,10.553-2.828A7.726,7.726,0,0,1,103.411,95.317Z" fill="#f4dd45"/>
    <path d="M103.411,32.683a7.725,7.725,0,1,0,10.553,2.828A7.726,7.726,0,0,0,103.411,32.683Z" fill="#f4dd45"/>
    <path d="M24.589,95.317a7.725,7.725,0,1,0-10.553-2.828A7.726,7.726,0,0,0,24.589,95.317Z" fill="#f4dd45"/>
    <circle cx="64" cy="14.032" r="7.725" fill="#f4dd45"/>
    <circle cx="64" cy="113.968" r="7.725" fill="#f4dd45"/>
  </g>
</svg>
