<?xml version="1.0" encoding="iso-8859-1"?>
<!-- Generator: Adobe Illustrator 19.0.0, SVG Export Plug-In . SVG Version: 6.00 Build 0)  -->
<svg version="1.1" id="Layer_1" xmlns="http://www.w3.org/2000/svg" xmlns:xlink="http://www.w3.org/1999/xlink" x="0px" y="0px"
	 viewBox="0 0 512 512" style="enable-background:new 0 0 512 512;" xml:space="preserve">
<path style="fill:#ACE5AC;" d="M412.295,460.531v21.827c0,11.906-9.651,21.558-21.558,21.558H45.811
	c-11.906,0-21.558-9.651-21.558-21.558V29.642c0-11.906,9.651-21.558,21.558-21.558h344.926c11.906,0,21.558,9.651,21.558,21.558
	v269.474V460.531z"/>
<path style="fill:#FE9D5E;" d="M423.074,379.958c0,44.647-36.195,80.842-80.842,80.842s-80.842-36.195-80.842-80.842
	s36.195-80.842,80.842-80.842S423.074,335.31,423.074,379.958z"/>
<path style="fill:#FE5A3A;" d="M379.958,379.958c0,20.836-16.891,37.726-37.726,37.726s-37.726-16.891-37.726-37.726
	s16.891-37.726,37.726-37.726S379.958,359.122,379.958,379.958z"/>
<path style="fill:#FEAF50;" d="M439.242,385.078v32.606l-14.182,75.637c-1.152,6.143-6.516,10.595-12.766,10.595
	s-11.613-4.452-12.765-10.595l-14.182-75.637v-32.606H439.242z"/>
<path style="fill:#FE9443;" d="M412.295,385.078v118.838c-6.25,0-11.613-4.452-12.765-10.595l-14.182-75.637v-32.606H412.295z"/>
<path style="fill:#6583B7;" d="M439.242,417.684h-53.895c-5.953,0-10.779-4.826-10.779-10.779V45.811
	c0-20.836,16.891-37.726,37.726-37.726l0,0c20.836,0,37.726,16.891,37.726,37.726v361.095
	C450.021,412.858,445.195,417.684,439.242,417.684z"/>
<path style="fill:#355072;" d="M420.379,417.684h-35.032c-5.953,0-10.779-4.826-10.779-10.779V45.811
	c0-20.836,16.891-37.726,37.726-37.726l0,0c2.776,0,5.479,0.308,8.084,0.877V417.684z"/>
<path style="fill:#FE9443;" d="M455.41,191.326L455.41,191.326c-17.86,0-32.337-14.477-32.337-32.337V61.979
	c0-11.906,9.651-21.558,21.558-21.558h21.558c11.906,0,21.558,9.651,21.558,21.558v97.011
	C487.747,176.849,473.27,191.326,455.41,191.326z"/>
<path style="fill:#FEAF50;" d="M450.021,45.811c0-1.83-0.138-3.628-0.389-5.389h16.558c11.906,0,21.558,9.651,21.558,21.558v97.011
	c0,17.86-14.477,32.337-32.337,32.337c-1.837,0-3.636-0.162-5.389-0.456V45.811z"/>
<path d="M142.821,409.6c4.465,0,8.084,3.62,8.084,8.084c0,4.465-3.62,8.084-8.084,8.084H99.705c-4.465,0-8.084-3.62-8.084-8.084
	c0-4.465,3.62-8.084,8.084-8.084H142.821z M158.989,140.126c-4.465,0-8.084,3.62-8.084,8.084c0,4.465,3.62,8.084,8.084,8.084
	h118.568c4.466,0,8.084-3.62,8.084-8.084c0-4.465-3.618-8.084-8.084-8.084H158.989z M344.926,105.095
	c0-4.465-3.618-8.084-8.084-8.084H99.705c-4.465,0-8.084,3.62-8.084,8.084s3.62,8.084,8.084,8.084h237.137
	C341.308,113.179,344.926,109.559,344.926,105.095z M269.474,379.958c0-40.119,32.639-72.758,72.758-72.758
	c4.466,0,8.084-3.62,8.084-8.084c0-4.465-3.618-8.084-8.084-8.084c-49.033,0-88.926,39.892-88.926,88.926
	s39.893,88.926,88.926,88.926c5.98,0,11.962-0.598,17.778-1.779c4.375-0.888,7.202-5.156,6.314-9.531s-5.149-7.205-9.532-6.314
	c-4.759,0.966-9.658,1.456-14.561,1.456C302.112,452.716,269.474,420.077,269.474,379.958z M226.358,374.568
	c0-4.465-3.62-8.084-8.084-8.084H99.705c-4.465,0-8.084,3.62-8.084,8.084c0,4.465,3.62,8.084,8.084,8.084h118.568
	C222.738,382.653,226.358,379.033,226.358,374.568z M344.926,256c0-4.465-3.618-8.084-8.084-8.084H99.705
	c-4.465,0-8.084,3.62-8.084,8.084c0,4.465,3.62,8.084,8.084,8.084h237.137C341.308,264.084,344.926,260.465,344.926,256z
	 M495.832,61.979v97.011c0,21.382-16.69,38.94-37.726,40.332v207.584c0,7.945-4.937,14.759-11.904,17.533l-13.196,70.374
	C431.138,504.771,422.428,512,412.295,512c-10.133,0-18.844-7.229-20.712-17.189l-13.195-70.373
	c-6.968-2.775-11.904-9.588-11.904-17.533V45.811C366.484,20.55,387.034,0,412.295,0c20.242,0,37.965,13.487,43.789,32.337h10.105
	C482.534,32.337,495.832,45.634,495.832,61.979z M429.501,425.768h-34.413l12.386,66.063c0.434,2.317,2.462,4,4.82,4
	c2.358,0,4.385-1.683,4.82-3.999L429.501,425.768z M441.937,197.102c-15.684-5.561-26.947-20.546-26.947-38.112V61.979
	c0-14.407,10.332-26.447,23.976-29.099c-4.859-9.945-15.132-16.712-26.67-16.712c-16.344,0-29.642,13.297-29.642,29.642v361.095
	c0,1.461,1.168,2.654,2.62,2.694c0.079,0,0.157,0,0.237,0.001h53.57c0.079-0.001,0.157-0.001,0.237-0.001
	c1.452-0.04,2.62-1.233,2.62-2.694V197.102H441.937z M479.663,61.979c0-7.43-6.044-13.474-13.474-13.474H449.72
	c-0.061,0.001-0.121,0.001-0.182,0h-4.907c-7.43,0-13.474,6.044-13.474,13.474v97.011c0,13.373,10.88,24.253,24.253,24.253
	c13.372,0,24.253-10.879,24.253-24.253V61.979z M369.179,495.832H45.811c-7.43,0-13.474-6.044-13.474-13.474V29.642
	c0-7.43,6.044-13.474,13.474-13.474h301.811c4.466,0,8.084-3.62,8.084-8.084S352.087,0,347.621,0H45.811
	C29.465,0,16.168,13.297,16.168,29.642v452.716c0,16.345,13.297,29.642,29.642,29.642h323.368c4.466,0,8.084-3.62,8.084-8.084
	S373.645,495.832,369.179,495.832z M99.705,220.968h237.137c4.466,0,8.084-3.62,8.084-8.084c0-4.465-3.618-8.084-8.084-8.084H99.705
	c-4.465,0-8.084,3.62-8.084,8.084C91.621,217.349,95.241,220.968,99.705,220.968z M342.232,350.316c4.466,0,8.084-3.62,8.084-8.084
	s-3.618-8.084-8.084-8.084c-25.26,0-45.811,20.55-45.811,45.811c0,25.26,20.55,45.811,45.811,45.811c4.466,0,8.084-3.62,8.084-8.084
	c0-4.465-3.618-8.084-8.084-8.084c-16.344,0-29.642-13.297-29.642-29.642C312.589,363.613,325.887,350.316,342.232,350.316z"/>
<g>
</g>
<g>
</g>
<g>
</g>
<g>
</g>
<g>
</g>
<g>
</g>
<g>
</g>
<g>
</g>
<g>
</g>
<g>
</g>
<g>
</g>
<g>
</g>
<g>
</g>
<g>
</g>
<g>
</g>
</svg>
