<?xml version="1.0" encoding="utf-8"?>

<!DOCTYPE svg PUBLIC "-//W3C//DTD SVG 1.1//EN" "http://www.w3.org/Graphics/SVG/1.1/DTD/svg11.dtd">
<!-- Uploaded to: SVG Repo, www.svgrepo.com, Generator: SVG Repo Mixer Tools -->
<svg version="1.1" id="_x32_" xmlns="http://www.w3.org/2000/svg" xmlns:xlink="http://www.w3.org/1999/xlink" 
	 width="800px" height="800px" viewBox="0 0 512 512"  xml:space="preserve">
<style type="text/css">
<![CDATA[
	.st0{fill:#baffc2;}
]]>
</style>
<g>
	<path class="st0" d="M508.726,322.645c-2.641-24.563-4.172-49.563-4.453-74.813c-0.734-68.25-28.5-130.25-73.172-175.109
		C386.444,27.848,324.741,0.004,256.381,0.004C189.038,0.02,127.069,27.067,81.944,70.786S8.381,175.098,8.381,242.02
		c0,1.641,0.016,3.281,0.047,4.891c0.031,1.781,0.047,3.563,0.047,5.328c0,17.359-1.797,34.422-5.063,51.094
		c-1.125,5.734,2.609,11.297,8.344,12.422s11.297-2.625,12.422-8.359l0,0c3.5-17.891,5.469-36.328,5.469-55.156
		c0-1.938-0.031-3.844-0.063-5.75c-0.031-1.516-0.047-3-0.047-4.469c0-60.844,25.797-115.953,67.125-156.031
		c41.344-40.063,98.094-64.828,159.719-64.828c62.563,0,118.797,25.391,159.719,66.5c40.907,41.094,66.329,97.797,67.016,160.406
		c0.281,25.953,1.844,51.625,4.578,76.828h0.047c0.531,5.328,4.984,9.531,10.469,9.531c5.844,0,10.578-4.75,10.578-10.594v-0.063
		v-0.563L508.726,322.645z"/>
	<path class="st0" d="M427.616,249.286c-1.657-47.328-20.938-90.391-51.782-121.672c-30.813-31.266-73.391-50.75-121-50.734
		c-47.313,0-90.531,19.141-121.859,50.063c-31.344,30.906-50.922,73.75-50.922,121.016v1.359v-0.031
		c0.016,0.859,0.016,1.703,0.016,2.531c0,53.313-12.75,103.328-32.156,148.609c-2.297,5.359,0.188,11.593,5.563,13.89
		c5.359,2.297,11.594-0.188,13.891-5.563c20.297-47.359,33.859-100.218,33.859-156.937c0-0.891-0.016-1.766-0.016-2.641v-0.031
		l-0.016-1.188c0.016-41.359,17.094-78.75,44.641-105.953c27.563-27.188,65.453-43.969,107-43.969
		c41.797,0.016,78.797,16.953,105.938,44.438c27.125,27.5,44.234,65.531,45.688,107.547c2.156,60.375,10.281,119.969,22.954,177.25
		c1.25,5.688,6.906,9.297,12.625,8.031c5.688-1.266,9.297-6.922,8.031-12.609C437.647,366.567,429.694,308.239,427.616,249.286z"/>
	<path class="st0" d="M260.6,243.817c-5.828-0.266-10.781,4.25-11.031,10.078c-3.719,82.609-30.188,162.906-66.719,235.359
		c-2.656,5.203-0.547,11.578,4.672,14.203c5.219,2.641,11.578,0.531,14.203-4.672c37.516-74.391,65.063-157.421,68.969-243.937
		C270.944,249.02,266.428,244.067,260.6,243.817z"/>
	<path class="st0" d="M359.569,258.192v-0.031c-0.016-0.109,0-0.219-0.016-0.328l0,0c-0.203-55.25-45.031-100.063-100.406-100.063
		c-55.438,0-100.422,44.984-100.422,100.422v-0.094c-0.625,70.781-21.031,137.359-50.469,196.796
		c-2.594,5.234-0.438,11.578,4.781,14.172c5.234,2.609,11.594,0.453,14.188-4.781l0,0c30.484-61.562,51.984-131.234,52.656-206.015
		v-0.078c0-21.891,8.859-41.656,23.219-56.047c14.391-14.359,34.156-23.219,56.047-23.234c21.938,0.016,41.672,8.875,56.047,23.234
		c14.359,14.391,23.203,34.141,23.203,56.047v0.125l0.016,0.219c0.109,3.641,0.172,7.297,0.172,10.969
		c0.031,75.5-25.359,153.859-62.313,227.156c-2.625,5.219-0.531,11.578,4.688,14.203c5.234,2.625,11.578,0.531,14.219-4.688
		c37.828-75.203,64.531-156.406,64.563-236.671C359.741,265.739,359.678,261.973,359.569,258.192z"/>
	<path class="st0" d="M383.475,403.176c-5.766-0.938-11.203,2.969-12.141,8.75v-0.016c-3.688,22.703-9.594,44.188-16.469,63.719
		c-1.938,5.5,0.953,11.547,6.469,13.484s11.547-0.953,13.5-6.469c7.219-20.531,13.453-43.203,17.375-67.328
		C393.147,409.551,389.241,404.114,383.475,403.176z"/>
</g>
</svg>