<?xml version="1.0" encoding="UTF-8"?>
<!DOCTYPE svg PUBLIC "-//W3C//DTD SVG 1.1//EN" "http://www.w3.org/Graphics/SVG/1.1/DTD/svg11.dtd">
<!-- Creator: CorelDRAW -->
<svg xmlns="http://www.w3.org/2000/svg" xml:space="preserve" width="6.82666in" height="6.82666in" style="shape-rendering:geometricPrecision; text-rendering:geometricPrecision; image-rendering:optimizeQuality; fill-rule:evenodd; clip-rule:evenodd"
viewBox="0 0 6.82666 6.82666"
 xmlns:xlink="http://www.w3.org/1999/xlink">
 <defs>
  <style type="text/css">
   <![CDATA[
    .fil2 {fill:none}
    .fil1 {fill:#00ACC1}
    .fil0 {fill:#4DD0E1}
    .fil5 {fill:#424242;fill-rule:nonzero}
    .fil4 {fill:#4E342E;fill-rule:nonzero}
    .fil6 {fill:#6D4C41;fill-rule:nonzero}
    .fil3 {fill:#8D6E63;fill-rule:nonzero}
    .fil7 {fill:#FFB74D;fill-rule:nonzero}
   ]]>
  </style>
   <clipPath id="id0">
    <path d="M3.41333 -3.93701e-006c1.88514,0 3.41333,1.52819 3.41333,3.41333 0,1.88514 -1.52819,3.41333 -3.41333,3.41333 -1.88514,0 -3.41333,-1.52819 -3.41333,-3.41333 0,-1.88514 1.52819,-3.41333 3.41333,-3.41333z"/>
   </clipPath>
 </defs>
 <g id="Layer_x0020_1">
  <metadata id="CorelCorpID_0Corel-Layer"/>
  <path class="fil0" d="M3.41333 -3.93701e-006c1.88514,0 3.41333,1.52819 3.41333,3.41333 0,1.88514 -1.52819,3.41333 -3.41333,3.41333 -1.88514,0 -3.41333,-1.52819 -3.41333,-3.41333 0,-1.88514 1.52819,-3.41333 3.41333,-3.41333z"/>
  <g style="clip-path:url(#id0)">
   <g id="_351278072">
    <g>
     <polygon id="_3555823281" class="fil1" points="3.93638,1.88992 7.72265,5.67619 7.71725,5.68135 7.7116,5.68624 7.70572,5.69086 7.69963,5.6952 7.69331,5.69926 7.6868,5.70301 7.68009,5.70645 7.6732,5.70957 7.66615,5.71236 7.65892,5.71481 7.65155,5.71692 7.64403,5.71866 7.63638,5.72003 7.6286,5.72102 7.62072,5.72163 7.61273,5.72183 3.82646,1.93556 3.83445,1.93535 3.84233,1.93475 3.85011,1.93376 3.85776,1.93239 3.86528,1.93065 3.87265,1.92854 3.87988,1.92609 3.88694,1.9233 3.89383,1.92018 3.90053,1.91674 3.90705,1.91298 3.91336,1.90893 3.91946,1.90459 3.92533,1.89996 3.93098,1.89507 "/>
     <polygon id="_355583384" class="fil1" points="3.18,1.93556 6.96627,5.72183 6.78647,5.72183 3.0002,1.93556 "/>
     <polygon id="_355582904" class="fil1" points="4.54077,4.81299 8.32704,8.59926 8.29967,8.62599 8.27166,8.65206 8.24304,8.67746 8.21381,8.70217 8.18398,8.72619 8.15357,8.7495 8.1226,8.7721 8.09106,8.79396 8.05898,8.81507 8.02637,8.83543 7.99324,8.85502 7.9596,8.87383 7.92546,8.89183 7.89085,8.90904 7.85576,8.92542 7.82022,8.94097 7.78424,8.95567 7.74781,8.96952 7.71098,8.98249 7.67373,8.99459 7.63609,9.00578 7.59807,9.01607 7.55968,9.02544 7.52093,9.03388 7.48184,9.04137 7.44241,9.0479 7.40267,9.05346 7.36262,9.05804 7.32227,9.06162 7.28165,9.0642 7.24075,9.06575 7.1996,9.06627 3.41333,5.28 3.45448,5.27948 3.49538,5.27793 3.536,5.27535 3.57635,5.27177 3.6164,5.26719 3.65615,5.26163 3.69557,5.25509 3.73466,5.24761 3.77341,5.23917 3.8118,5.2298 3.84982,5.21951 3.88746,5.20831 3.92471,5.19622 3.96155,5.18325 3.99797,5.1694 4.03396,5.1547 4.0695,5.13915 4.10458,5.12277 4.1392,5.10556 4.17333,5.08756 4.20697,5.06875 4.2401,5.04916 4.27272,5.0288 4.3048,5.00769 4.33633,4.98583 4.36731,4.96323 4.39772,4.93992 4.42754,4.9159 4.45677,4.89119 4.48539,4.86579 4.5134,4.83972 "/>
     <polygon id="_355583240" class="fil1" points="3.41333,5.28 7.1996,9.06627 7.15844,9.06575 7.11755,9.0642 7.07693,9.06162 7.03658,9.05804 6.99653,9.05346 6.95678,9.0479 6.91736,9.04137 6.87827,9.03388 6.83952,9.02544 6.80113,9.01607 6.76311,9.00578 6.72546,8.99459 6.68822,8.98249 6.65138,8.96952 6.61496,8.95567 6.57897,8.94097 6.54343,8.92542 6.50835,8.90904 6.47373,8.89183 6.4396,8.87383 6.40596,8.85502 6.37283,8.83543 6.34021,8.81507 6.30813,8.79396 6.2766,8.7721 6.24562,8.7495 6.21521,8.72619 6.18539,8.70217 6.15616,8.67746 2.36989,4.89119 2.39912,4.9159 2.42894,4.93992 2.45935,4.96323 2.49033,4.98583 2.52187,5.00769 2.55394,5.0288 2.58656,5.04916 2.61969,5.06875 2.65333,5.08756 2.68746,5.10556 2.72208,5.12277 2.75717,5.13915 2.7927,5.1547 2.82869,5.1694 2.86511,5.18325 2.90195,5.19622 2.9392,5.20831 2.97684,5.21951 3.01486,5.2298 3.05325,5.23917 3.092,5.24761 3.13109,5.25509 3.17052,5.26163 3.21026,5.26719 3.25031,5.27177 3.29066,5.27535 3.33128,5.27793 3.37218,5.27948 "/>
     <polygon id="_355583288" class="fil1" points="3.0002,1.93556 6.78647,5.72183 6.77848,5.72163 6.77059,5.72102 6.76282,5.72003 6.75517,5.71866 6.74765,5.71692 6.74028,5.71481 6.73306,5.71236 6.726,5.70957 6.71911,5.70645 6.7124,5.70301 6.70589,5.69926 6.69957,5.6952 6.69348,5.69086 6.6876,5.68624 6.68195,5.68135 6.67655,5.6762 2.89028,1.88993 2.89569,1.89508 2.90133,1.89997 2.90721,1.90459 2.91331,1.90893 2.91962,1.91298 2.92613,1.91674 2.93284,1.92018 2.93973,1.9233 2.94679,1.92609 2.95401,1.92854 2.96139,1.93065 2.96891,1.93239 2.97656,1.93376 2.98433,1.93475 2.99221,1.93535 "/>
     <polygon id="_355582712" class="fil1" points="2.89028,1.88993 6.67655,5.6762 6.67139,5.67079 2.88513,1.88452 "/>
     <polygon id="_355583144" class="fil1" points="5.00778,3.68556 8.79404,7.47183 8.79352,7.51298 8.79197,7.55387 8.78939,7.5945 8.78581,7.63485 8.78123,7.6749 8.77567,7.71464 8.76914,7.75406 8.76165,7.79316 8.75321,7.83191 8.74384,7.8703 8.73356,7.90832 8.72236,7.94596 8.71026,7.9832 8.69729,8.02004 8.68344,8.05646 8.66874,8.09245 8.65319,8.12799 8.63681,8.16308 8.61961,8.19769 8.6016,8.23183 8.58279,8.26546 8.5632,8.2986 8.54285,8.33121 8.52173,8.36329 8.49987,8.39482 8.47728,8.4258 8.45396,8.45621 8.42994,8.48604 8.40523,8.51527 8.37983,8.54389 8.35376,8.57189 8.32704,8.59926 4.54077,4.81299 4.56749,4.78562 4.59356,4.75762 4.61896,4.729 4.64368,4.69976 4.6677,4.66994 4.69101,4.63953 4.7136,4.60855 4.73546,4.57702 4.75658,4.54494 4.77694,4.51233 4.79652,4.47919 4.81533,4.44556 4.83334,4.41142 4.85054,4.37681 4.86693,4.34172 4.88247,4.30618 4.89718,4.27019 4.91102,4.23377 4.924,4.19693 4.93609,4.15969 4.94729,4.12205 4.95757,4.08402 4.96694,4.04563 4.97538,4.00689 4.98287,3.96779 4.9894,3.92837 4.99496,3.88863 4.99954,3.84857 5.00313,3.80823 5.0057,3.7676 5.00726,3.72671 "/>
     <polygon id="_355583192" class="fil1" points="3.94154,1.5977 7.7278,5.38398 7.73269,5.38962 7.73731,5.3955 7.74166,5.4016 7.74571,5.40791 7.74946,5.41443 7.7529,5.42113 7.75602,5.42802 7.75881,5.43508 7.76127,5.4423 7.76337,5.44968 7.76511,5.4572 7.76648,5.46485 7.76748,5.47262 7.76808,5.4805 7.76828,5.48849 3.98202,1.70222 3.98181,1.69423 3.98121,1.68635 3.98022,1.67857 3.97885,1.67093 3.9771,1.66341 3.975,1.65603 3.97255,1.64881 3.96976,1.64175 3.96663,1.63486 3.96319,1.62815 3.95944,1.62164 3.95539,1.61533 3.95105,1.60923 3.94643,1.60335 "/>
     <polygon id="_355583480" class="fil1" points="3.98202,1.70222 7.76828,5.48849 7.76828,5.56627 3.98202,1.78 "/>
     <polygon id="_355584008" class="fil1" points="3.98202,1.78 7.76828,5.56627 7.76808,5.57426 7.76748,5.58215 7.76648,5.58992 7.76511,5.59757 7.76337,5.60509 7.76127,5.61246 7.75881,5.61969 7.75602,5.62675 7.7529,5.63363 7.74946,5.64034 7.74571,5.64686 7.74166,5.65317 7.73731,5.65927 7.73269,5.66515 7.7278,5.67079 7.72265,5.67619 3.93638,1.88992 3.94154,1.88452 3.94643,1.87887 3.95105,1.873 3.95539,1.8669 3.95944,1.86059 3.96319,1.85407 3.96663,1.84736 3.96976,1.84048 3.97255,1.83341 3.975,1.82619 3.9771,1.81881 3.97885,1.8113 3.98022,1.80365 3.98121,1.79587 3.98181,1.78799 "/>
     <polygon id="_355584152" class="fil1" points="3.82646,1.93556 7.61273,5.72183 7.43293,5.72183 3.64666,1.93556 "/>
     <polygon id="_355583696" class="fil1" points="3.64666,1.93556 7.43293,5.72183 7.43293,5.89433 3.64666,2.10806 "/>
     <polygon id="_355583840" class="fil1" points="4.59356,2.61349 8.37983,6.39976 8.40523,6.42838 8.42994,6.45761 8.45396,6.48744 8.47728,6.51785 8.49987,6.54883 8.52173,6.58036 8.54285,6.61244 8.5632,6.64505 8.58279,6.67819 8.6016,6.71182 8.61961,6.74596 8.63681,6.78057 8.65319,6.81566 8.66874,6.8512 8.68344,6.88719 8.69729,6.92361 8.71026,6.96044 8.72236,6.99769 8.73356,7.03533 8.74384,7.07335 8.75321,7.11174 8.76165,7.15049 8.76914,7.18959 8.77567,7.22901 8.78123,7.26876 8.78581,7.30881 8.78939,7.34915 8.79197,7.38978 8.79352,7.43067 8.79404,7.47183 5.00778,3.68556 5.00726,3.6444 5.0057,3.60351 5.00313,3.56288 4.99954,3.52254 4.99496,3.48248 4.9894,3.44274 4.98287,3.40331 4.97538,3.36422 4.96694,3.32547 4.95757,3.28708 4.94729,3.24906 4.93609,3.21142 4.924,3.17417 4.91102,3.13733 4.89718,3.10092 4.88247,3.06493 4.86693,3.02939 4.85054,2.9943 4.83334,2.95969 4.81533,2.92555 4.79652,2.89191 4.77694,2.85878 4.75658,2.82617 4.73546,2.79409 4.7136,2.76256 4.69101,2.73157 4.6677,2.70117 4.64368,2.67134 4.61896,2.64211 "/>
    </g>
    <path id="_351277832" class="fil1" d="M3.64666 2.10806c0.346906,0.0508701 0.657516,0.213461 0.89411,0.450055 0.288535,0.288539 0.467008,0.687154 0.467008,1.12744 0,0.440283 -0.178472,0.838898 -0.467008,1.12744 -0.288535,0.288535 -0.687154,0.467008 -1.12744,0.467008 -0.440283,0 -0.838902,-0.178472 -1.12744,-0.467008 -0.288535,-0.288539 -0.467008,-0.687154 -0.467008,-1.12744 0,-0.440287 0.178472,-0.838902 0.467008,-1.12744 0.236594,-0.236594 0.547201,-0.399185 0.894106,-0.450055l0 -0.1725 -0.179799 0c-0.0428583,0 -0.0817638,-0.0174803 -0.109921,-0.0456339 -0.0281535,-0.0281614 -0.0456339,-0.0670709 -0.0456339,-0.109925l0 -0.0777795c0,-0.0428583 0.0174803,-0.0817638 0.0456339,-0.109921 0.0281575,-0.0281535 0.067063,-0.0456339 0.109921,-0.0456339l0.82626 0c0.0428583,0 0.0817638,0.0174803 0.109921,0.0456339 0.0281535,0.0281575 0.0456339,0.067063 0.0456339,0.109921l0 0.0777795c0,0.0428543 -0.0174803,0.0817717 -0.0456339,0.109921 -0.0281496,0.0281575 -0.0670591,0.0456378 -0.109921,0.0456378l-0.179803 0 0 0.1725z"/>
   </g>
  </g>
  <path class="fil2" d="M3.41333 -3.93701e-006c1.88514,0 3.41333,1.52819 3.41333,3.41333 0,1.88514 -1.52819,3.41333 -3.41333,3.41333 -1.88514,0 -3.41333,-1.52819 -3.41333,-3.41333 0,-1.88514 1.52819,-3.41333 3.41333,-3.41333z"/>
  <polygon class="fil3" points="3.33556,1.85778 3.33556,2.16889 3.18,2.16889 3.18,1.85778 "/>
  <polygon class="fil3" points="3.64666,1.85778 3.64666,2.16889 3.4911,2.16889 3.4911,1.85778 "/>
  <path class="fil4" d="M3.0002 1.54667l0.82626 0c0.0428583,0 0.0817638,0.0174803 0.109921,0.0456339 0.0281535,0.0281575 0.0456339,0.067063 0.0456339,0.109921l0 0.0777795c0,0.0428543 -0.0174803,0.0817717 -0.0456339,0.109921 -0.0281496,0.0281575 -0.0670591,0.0456378 -0.109921,0.0456378l-0.82626 0c-0.0428583,0 -0.0817638,-0.0174803 -0.109921,-0.0456339 -0.0281535,-0.0281614 -0.0456339,-0.0670709 -0.0456339,-0.109925l0 -0.0777795c0,-0.0428583 0.0174803,-0.0817638 0.0456339,-0.109921 0.0281575,-0.0281535 0.067063,-0.0456339 0.109921,-0.0456339z"/>
  <path class="fil5" d="M3.0002 1.78l1.1811e-005 0 3.93701e-006 -1.5748e-005 7.87402e-006 -3.93701e-006 -3.93701e-006 0c7.87402e-006,-2.3622e-005 1.9685e-005,-5.11811e-005 3.54331e-005,-3.54331e-005 1.5748e-005,1.5748e-005 -1.1811e-005,2.3622e-005 -3.14961e-005,3.54331e-005l-7.87402e-006 3.93701e-006 3.93701e-006 -3.93701e-006 -1.9685e-005 7.87402e-006 0 1.1811e-005z"/>
  <path class="fil5" d="M3.82646 1.78l0 -1.1811e-005 -2.3622e-005 -7.87402e-006c-2.3622e-005,-1.1811e-005 -5.11811e-005,-2.3622e-005 -3.54331e-005,-3.93701e-005 1.5748e-005,-1.1811e-005 2.75591e-005,7.87402e-006 3.54331e-005,3.93701e-005l1.1811e-005 1.9685e-005 1.1811e-005 0z"/>
  <path class="fil5" d="M3.00022 1.70222l-1.1811e-005 0 0 1.1811e-005 1.9685e-005 7.87402e-006c2.3622e-005,7.87402e-006 5.11811e-005,2.3622e-005 3.54331e-005,3.54331e-005 -1.1811e-005,1.5748e-005 -2.75591e-005,-7.87402e-006 -3.54331e-005,-3.54331e-005l-7.87402e-006 -1.9685e-005z"/>
  <path class="fil5" d="M3.82646 1.70222l-1.1811e-005 0 -7.87402e-006 1.9685e-005c-7.87402e-006,2.75591e-005 -2.3622e-005,5.11811e-005 -3.54331e-005,3.54331e-005 -1.5748e-005,-1.1811e-005 7.87402e-006,-2.75591e-005 3.54331e-005,-3.54331e-005l1.9685e-005 -7.87402e-006 0 -1.1811e-005z"/>
  <path class="fil6" d="M3.41333 2.09111c0.440283,0 0.838902,0.178472 1.12744,0.467008 0.288535,0.288539 0.467008,0.687154 0.467008,1.12744 0,0.440283 -0.178472,0.838898 -0.467008,1.12744 -0.288535,0.288535 -0.687154,0.467008 -1.12744,0.467008 -0.440283,0 -0.838902,-0.178472 -1.12744,-0.467008 -0.288535,-0.288539 -0.467008,-0.687154 -0.467008,-1.12744 0,-0.440287 0.178472,-0.838902 0.467008,-1.12744 0.288535,-0.288535 0.687154,-0.467008 1.12744,-0.467008z"/>
  <path class="fil7" d="M3.93082 2.83232c0.0192953,-0.0382559 0.0039252,-0.0849173 -0.0343307,-0.104209 -0.0382559,-0.0192953 -0.0849134,-0.0039252 -0.104209,0.0343307l-0.301169 0.59678 0 -0.879228c0,-0.0429567 -0.0348228,-0.0777795 -0.0777795,-0.0777795 -0.0429567,0 -0.0777795,0.0348228 -0.0777795,0.0777795l0 1.20556c0,0.0429528 0.0348228,0.0777795 0.0777795,0.0777795 0.0323858,0 0.0601457,-0.0197992 0.0718504,-0.0479528l0.445638 -0.883059z"/>
 </g>
</svg>
